<?xml version="1.0" encoding="UTF-8" standalone="no"?>
<!-- Created with Inkscape (http://www.inkscape.org/) -->

<svg
   width="32"
   height="32"
   viewBox="0 0 8.4666666 8.4666666"
   version="1.1"
   id="svg1"
   inkscape:version="1.1 (c68e22c387, 2021-05-23)"
   sodipodi:docname="favicon(1).svg"
   inkscape:export-filename="favicon.png"
   inkscape:export-xdpi="48"
   inkscape:export-ydpi="48"
   xmlns:inkscape="http://www.inkscape.org/namespaces/inkscape"
   xmlns:sodipodi="http://sodipodi.sourceforge.net/DTD/sodipodi-0.dtd"
   xmlns="http://www.w3.org/2000/svg"
   xmlns:svg="http://www.w3.org/2000/svg">
  <sodipodi:namedview
     id="namedview1"
     pagecolor="#ffffff"
     bordercolor="#000000"
     borderopacity="0.25"
     inkscape:showpageshadow="2"
     inkscape:pageopacity="0.0"
     inkscape:pagecheckerboard="0"
     inkscape:deskcolor="#d1d1d1"
     inkscape:document-units="mm"
     inkscape:zoom="22.627418"
     inkscape:cx="18.738329"
     inkscape:cy="18.959299"
     inkscape:window-width="2400"
     inkscape:window-height="1256"
     inkscape:window-x="-11"
     inkscape:window-y="-11"
     inkscape:window-maximized="1"
     inkscape:current-layer="layer4"
     showgrid="false"
     inkscape:export-bgcolor="#f6f6e900"
     inkscape:pageshadow="2" />
  <defs
     id="defs1" />
  <g
     inkscape:label="background"
     inkscape:groupmode="layer"
     id="layer1"
     style="display:inline">
    <path
       style="fill:#f6f6e9;fill-opacity:1;stroke:#000000;stroke-width:0.0665365;stroke-linecap:square;stroke-linejoin:miter;stroke-dasharray:none"
       d="M -0.01673177,-0.01673177 H 8.4333984 V 8.4333984 h -8.45013017 v -8.45013017"
       id="path2" />
  </g>
  <g
     inkscape:groupmode="layer"
     id="layer2"
     inkscape:label="mountain"
     sodipodi:insensitive="true"
     style="display:inline">
    <path
       sodipodi:type="star"
       style="display:none;fill:#37abc8;stroke:#000000;stroke-width:0.0475936;stroke-linecap:square;stroke-linejoin:miter;stroke-dasharray:none"
       id="path3"
       inkscape:flatsided="true"
       sodipodi:sides="3"
       sodipodi:cx="3.7859299"
       sodipodi:cy="2.7018533"
       sodipodi:r1="3.7761827"
       sodipodi:r2="1.8880913"
       sodipodi:arg1="0.52359878"
       sodipodi:arg2="1.5707963"
       inkscape:rounded="0"
       inkscape:randomized="0"
       d="m 7.0562,4.5899446 -6.5405402,0 3.2702701,-5.664274 z"
       inkscape:transform-center-y="-1.5868458"
       transform="matrix(1.6808991,0,0,1.6808991,-0.01376618,3.1891223)"
       inkscape:label="path3" />
  </g>
  <g
     inkscape:groupmode="layer"
     id="layer3"
     inkscape:label="F"
     style="display:inline">
    <path
       style="display:inline;fill:#000000;stroke:#000000;stroke-width:0.0111128;stroke-linecap:butt;stroke-linejoin:miter;stroke-dasharray:none"
       d="M 0.2284566,7.6084471 C 0.26552401,7.4125197 4.173317,0.71902652 4.2296987,0.68428042 L 4.2522235,0.64418742 4.7921854,1.5675746 5.4432326,2.7299101 5.1597908,3.1548847 C 5.0038978,3.388621 4.8743998,3.5799027 4.8720176,3.5799552 4.8696361,3.5800077 4.6947244,3.3053341 4.4833264,2.9695694 4.2719289,2.6338047 4.0959802,2.359088 4.0923293,2.359088 c -0.00569,0 -1.3253789,2.4027993 -1.3253789,2.413165 0,0.00207 0.4853349,0.00376 1.078522,0.00376 0.5931872,0 1.0785222,0.00233 1.0785222,0.00516 0,0.00284 -0.1218211,0.2171734 -0.2707134,0.4762981 L 4.3825678,5.7286133 3.3078617,5.7287707 2.2331558,5.7289281 1.7088656,6.6710108 1.1815126,7.6268759 0.71685271,7.6314174 c -0.26268382,0.018845 -0.49421855,0.00781 -0.49375618,0.00536 z"
       id="path9"
       inkscape:label="Fill"
       sodipodi:nodetypes="sscccssssssssccccccss" />
  </g>
  <g
     inkscape:groupmode="layer"
     id="layer4"
     inkscape:label="L"
     style="display:inline">
    <path
       sodipodi:type="star"
       style="display:none;fill:#ffffff;stroke:#000000;stroke-width:0.0799999;stroke-linecap:butt;stroke-linejoin:miter;stroke-dasharray:none"
       id="path5"
       inkscape:flatsided="true"
       sodipodi:sides="3"
       sodipodi:cx="11.846994"
       sodipodi:cy="10.904356"
       sodipodi:r1="2.7325644"
       sodipodi:r2="1.3662822"
       sodipodi:arg1="-1.5707963"
       sodipodi:arg2="-0.52359878"
       inkscape:rounded="0"
       inkscape:randomized="0"
       d="m 11.846994,8.1717916 2.366471,4.0988464 -4.7329409,0 z"
       inkscape:transform-center-y="-0.94971403"
       transform="matrix(1.3902164,0,0,1.3902164,-7.9398322,-6.1700949)"
       inkscape:label="path5" />
    <path
       sodipodi:type="star"
       style="display:inline;fill:#000000;fill-opacity:1;stroke:#f6f6e9;stroke-width:0.001;stroke-linecap:butt;stroke-linejoin:miter;stroke-dasharray:none;stroke-opacity:1"
       id="path39"
       inkscape:flatsided="true"
       sodipodi:sides="3"
       sodipodi:cx="9.6242189"
       sodipodi:cy="8.8304682"
       sodipodi:r1="3.3418376"
       sodipodi:r2="1.6709188"
       sodipodi:arg1="-1.5707963"
       sodipodi:arg2="-0.52359878"
       inkscape:rounded="0"
       inkscape:randomized="0"
       d="m 9.624219,5.4886305 2.894116,5.0127565 -5.7882324,0 z"
       inkscape:transform-center-y="-0.71364782"
       transform="matrix(0.85419761,0,0,0.85419761,-2.3675216,-1.3177338)" />
    <path
       sodipodi:type="star"
       style="display:inline;fill:#f6f6e9;fill-opacity:1;stroke:none;stroke-width:0.0147909;stroke-linecap:butt;stroke-linejoin:miter;stroke-dasharray:none;stroke-opacity:1"
       id="path40"
       inkscape:flatsided="true"
       sodipodi:sides="3"
       sodipodi:cx="10.533724"
       sodipodi:cy="9.7482424"
       sodipodi:r1="1.6041216"
       sodipodi:r2="0.80206084"
       sodipodi:arg1="-1.5707963"
       sodipodi:arg2="-0.52359878"
       inkscape:rounded="0"
       inkscape:randomized="0"
       d="m 10.533724,8.1441208 1.38921,2.4061822 -2.7784202,0 z"
       inkscape:transform-center-y="-0.44128937"
       transform="matrix(1.1317209,0,0,1.1003894,-5.5261704,-4.7283709)" />
    <path
       style="display:none;fill:none;fill-opacity:1;stroke:#000000;stroke-width:0.001;stroke-linecap:butt;stroke-linejoin:miter;stroke-dasharray:none;stroke-opacity:1"
       d="M 7.956397,4.2598466 8.5101241,5.1247023"
       id="path42"
       inkscape:label="thin line" />
    <path
       style="display:none;fill:none;fill-opacity:1;stroke:#000000;stroke-width:0.001;stroke-linecap:butt;stroke-linejoin:miter;stroke-dasharray:none;stroke-opacity:1"
       d="M 6.8901246,7.6715444 H 7.0397041"
       id="path43"
       inkscape:label="thin line" />
    <path
       style="fill:#f6f6e9;fill-opacity:1;stroke:#000000;stroke-width:1.63707e-05;stroke-linecap:butt;stroke-linejoin:miter;stroke-dasharray:none;stroke-opacity:1"
       d="m 4.6662756,5.2529798 c 0,-9.187e-4 0.052372,-0.09328 0.1163832,-0.2052611 0.1508719,-0.263937 0.1512917,-0.2647214 0.1440887,-0.269173 -0.012169,-0.00752 -0.1672491,-0.00888 -1.1427073,-0.010018 l -1.005681,-0.00118 0.022128,-0.041149 C 2.9405566,4.4657332 3.71665,3.0513232 3.9744036,2.5867699 c 0.054767,-0.098707 0.1022212,-0.185798 0.1054539,-0.1935346 0.00323,-0.00774 0.00767,-0.015173 0.00986,-0.016528 0.00559,-0.00345 0.055311,0.073616 0.4414202,0.6840671 0.3091534,0.4887824 0.3340212,0.5269725 0.3421246,0.525406 0.00784,-0.00151 0.09718,-0.1324794 0.3723551,-0.5458603 0.1089805,-0.1637159 0.199121,-0.297675 0.2003121,-0.297687 0.00119,-1.19e-5 0.092608,0.1414009 0.2031489,0.3142508 l 0.2009834,0.3142726 -0.00823,0.014284 c -0.00453,0.00786 -0.2489537,0.4315497 -0.5431649,0.9415419 l -0.5349296,0.9272585 -0.048729,1.96e-4 c -0.0268,1.088e-4 -0.048728,-5.488e-4 -0.048728,-0.00147 z"
       id="path44" />
    <path
       style="display:none;fill:#f6f6e9;fill-opacity:1;stroke:#000000;stroke-width:0.001;stroke-linecap:butt;stroke-linejoin:miter;stroke-dasharray:none;stroke-opacity:1"
       d="m 2.2039488,10.869746 2.9692836,0.03462"
       id="path45"
       sodipodi:nodetypes="cc"
       inkscape:label="thin line" />
    <path
       style="fill:#f6f6e9;fill-opacity:1;stroke:#000000;stroke-width:0.00000290959;stroke-linecap:butt;stroke-linejoin:miter;stroke-dasharray:none;stroke-opacity:1"
       d="m 3.0668398,7.6481686 c -0.1502809,-0.00178 -0.3225589,-0.00385 -0.38284,-0.00452 -0.060281,-6.735e-4 -0.1129243,-0.00363 -0.127573,-0.00385 l -0.035296,-7.6e-6 -0.090959,-0.2851241 0.09096,-0.2434606 0.6579652,-0.2301357 0.5109523,0.2301357 -0.00194,0.00326 c -0.00106,0.00178 -0.062404,0.115805 -0.1474274,0.2620331 l -0.1599772,0.2751359 -0.020311,-8.74e-5 c -0.011171,-4.82e-5 -0.143268,-0.00156 -0.293549,-0.00341 z"
       id="path58"
       sodipodi:nodetypes="ccccccccsscscc" />
    <path
       style="fill:#f6f6e9;fill-opacity:1;stroke:#000000;stroke-width:0.0000115758;stroke-linecap:butt;stroke-linejoin:miter;stroke-dasharray:none;stroke-opacity:1"
       d="M 1.8274125,7.633239 C 1.5545193,7.63012 1.2999818,7.6265269 1.2617733,7.6252586 l -0.06947,-0.0023 0.2670188,-0.4839448 C 1.6061827,6.8728399 1.8414247,6.4480476 1.9820826,6.1950268 L 2.2378241,5.7349888 3.3128572,5.7348474 4.3878903,5.7347059 4.5241836,5.4973699 4.660477,5.260034 l 0.050022,-4.1e-6 0.050023,-4.3e-6 -0.00932,0.01608 c -0.00513,0.00884 -0.2460946,0.4263929 -0.5354759,0.9278878 l -0.5261483,0.911809 -0.5842239,1.313e-4 -0.5842238,1.314e-4 v 0.2618671 0.2618669 l -0.098774,-4.508e-4 c -0.054326,-2.353e-4 -0.3220505,-0.003 -0.5949435,-0.00612 z"
       id="path59" />
  </g>
</svg>
